<svg xmlns="http://www.w3.org/2000/svg" viewBox="0 0 108 106" fill="none" role="img" aria-hidden="true">
  <path
    d="M35.3293 101.706C35.3323 102.298 35.4571 102.883 35.696 103.425C35.9349 103.967 36.2827 104.454 36.7179 104.855C37.153 105.257 37.6662 105.565 38.2254 105.76C38.7846 105.955 39.378 106.032 39.9685 105.988C62.4508 104.382 83.6841 88.5017 90.4644 63.6998C90.8213 62.2724 91.8919 61.5586 93.3193 61.5586C94.7468 61.5586 95.9958 62.8076 95.9958 64.4135C95.9958 69.9449 88.8585 84.3978 78.688 92.784C77.6174 93.6762 77.0821 94.9252 77.0821 96.3526C77.0821 98.6722 79.0448 100.457 81.3644 100.457C82.2566 100.457 83.6841 99.9213 85.4684 98.3154C92.6056 91.8919 106.166 73.8704 106.166 54.0645C106.166 25.0249 83.6716 0 52.2802 0C24.2666 0 0 22.8391 0 49.2469C0 66.7331 13.9176 79.937 32.296 79.937C46.392 79.937 59.4175 69.9449 62.9861 56.2057C63.3429 54.7783 64.4135 54.0645 65.841 54.0645C67.2684 54.0645 68.5174 55.3136 68.5174 56.9194C68.5174 63.1645 56.741 84.9331 32.8313 84.9331C27.1215 84.9331 19.9843 83.3272 14.9882 80.4723C14.3192 80.1477 13.5901 79.9654 12.847 79.937C10.349 79.937 8.56468 81.7213 8.56468 84.2193C8.56468 85.6468 9.45683 87.0742 10.7058 87.788C17.3078 91.535 25.1587 93.4977 33.1881 93.4977C53.1724 93.4977 71.3723 79.937 76.7252 59.9528C77.0821 58.5253 78.1527 57.8116 79.5801 57.8116C81.0076 57.8116 82.2566 59.0606 82.2566 60.6665C82.2566 68.8743 67.6253 95.2821 39.4332 97.4232C37.1136 97.6017 35.3293 99.5644 35.3293 101.706Z"
    fill="#4F43DD"
  />
  <path
    d="M63.2497 33.3667C67.0975 33.3381 70.8747 34.401 74.1429 36.4321C74.4735 34.6276 74.6566 32.7992 74.6907 30.965C74.6907 22.4931 68.2208 14.9062 60.3431 14.9062C54.2158 14.9062 50.3866 19.9701 50.3866 26.2295C50.3614 29.6113 51.5547 32.8892 53.7482 35.4633C56.6067 34.0787 59.8024 33.3667 63.2497 33.3667Z"
    fill="#fff"
  />
  <path
    d="M81.7204 64.0572C82.8106 60.3262 83.2942 57.7354 83.2942 56.0528C83.2942 54.7466 82.1094 53.3513 80.4714 53.3513C79.7928 53.3622 79.1375 53.6003 78.6102 54.0276C78.083 54.455 77.7142 55.0468 77.563 55.7084C77.265 56.9306 76.6262 60.253 75.9982 62.3621C76.2587 61.5698 76.4966 60.7675 76.7119 59.955C77.0688 58.5276 78.1393 57.8139 79.5668 57.8139C80.9942 57.8139 82.2432 59.0629 82.2432 60.6688C82.2095 61.818 82.0247 62.9579 81.6937 64.059L81.7204 64.0572Z"
    fill="#352D8E"
  />
  <path
    d="M96.8854 60.1568C96.8854 58.8507 95.7006 57.4553 94.0644 57.4553C93.3874 57.4688 92.7342 57.7078 92.2084 58.1345C91.6826 58.5611 91.3141 59.1509 91.1613 59.8106C90.8598 61.0489 90.2103 64.4373 89.5751 66.541H89.6055C89.9124 65.6042 90.2014 64.655 90.4637 63.6861C90.8205 62.2587 91.8911 61.5449 93.3185 61.5449C94.746 61.5449 95.995 62.794 95.995 64.3998C95.9734 65.2882 95.8507 66.1711 95.6293 67.0317C96.4946 63.9163 96.8854 61.6663 96.8854 60.1568Z"
    fill="#352D8E"
  />
  <path
    d="M22.0366 62.0933C21.1896 62.0933 20.3617 61.8421 19.6575 61.3716C18.9532 60.901 18.4044 60.2322 18.0802 59.4497C17.7561 58.6672 17.6713 57.8062 17.8366 56.9755C18.0018 56.1448 18.4097 55.3817 19.0086 54.7828C19.6075 54.1839 20.3704 53.7761 21.2011 53.6108C22.0318 53.4456 22.8929 53.5304 23.6754 53.8546C24.4579 54.1787 25.1267 54.7275 25.5973 55.4318C26.0678 56.136 26.3189 56.964 26.3189 57.8109C26.3189 58.9467 25.8678 60.0359 25.0647 60.839C24.2616 61.6421 23.1723 62.0933 22.0366 62.0933V62.0933Z"
    fill="#352D8E"
  />
  <path
    d="M22.0366 45.3208C21.1896 45.3208 20.3617 45.0696 19.6575 44.5991C18.9532 44.1285 18.4044 43.4597 18.0802 42.6772C17.7561 41.8947 17.6713 41.0337 17.8366 40.203C18.0018 39.3723 18.4097 38.6093 19.0086 38.0104C19.6075 37.4115 20.3704 37.0036 21.2011 36.8384C22.0318 36.6731 22.8929 36.758 23.6754 37.0821C24.4579 37.4062 25.1267 37.9551 25.5973 38.6593C26.0678 39.3635 26.3189 40.1915 26.3189 41.0385C26.3189 42.1742 25.8678 43.2634 25.0647 44.0665C24.2616 44.8696 23.1723 45.3208 22.0366 45.3208V45.3208Z"
    fill="#352D8E"
  />
  <path
    d="M13.6505 53.707C12.8035 53.707 11.9756 53.4559 11.2714 52.9853C10.5671 52.5148 10.0183 51.8459 9.69414 51.0634C9.37002 50.281 9.28522 49.4199 9.45045 48.5892C9.61569 47.7585 10.0236 46.9955 10.6224 46.3966C11.2213 45.7977 11.9843 45.3898 12.815 45.2246C13.6457 45.0594 14.5068 45.1442 15.2893 45.4683C16.0718 45.7924 16.7406 46.3413 17.2111 47.0455C17.6817 47.7498 17.9328 48.5777 17.9328 49.4247C17.9328 50.5604 17.4816 51.6497 16.6786 52.4528C15.8755 53.2558 14.7862 53.707 13.6505 53.707Z"
    fill="#352D8E"
  />
  <path
    d="M31.4384 79.9263C31.7239 79.9263 32.0093 79.9371 32.2965 79.9371C46.3926 79.9371 59.418 69.9449 62.9866 56.2058C63.3435 54.7783 64.4141 54.0646 65.8415 54.0646C67.269 54.0646 68.518 55.3136 68.518 56.9195C68.518 57.0373 68.518 57.1622 68.5055 57.2888C68.5055 57.3245 68.5055 57.362 68.5055 57.3995C68.4966 57.5012 68.4859 57.6047 68.4734 57.7135C68.4734 57.7474 68.4645 57.7813 68.4592 57.817C68.4199 58.1096 68.3605 58.4231 68.2808 58.7573C68.2808 58.7769 68.2718 58.7984 68.2665 58.8198C68.229 58.9768 68.1897 59.1392 68.1451 59.3051L68.1344 59.3461C67.9809 59.9082 67.7775 60.5149 67.5402 61.1572C67.6426 61.0012 67.7321 60.8371 67.8078 60.6665C68.8681 58.2476 69.4149 55.6351 69.4137 52.994C69.4137 48.8901 66.5588 46.2136 62.4549 46.2136C55.3034 46.2136 53.8724 52.448 50.8569 59.1106C47.7255 66.0302 41.9782 73.5136 27.4825 73.5136C12.4176 73.5136 -3.05772 62.9861 0.717874 41.5744C0.764266 41.3086 0.801758 41.0677 0.828522 40.8464C0.28144 43.6132 0.0053301 46.4267 0.0041511 49.247C0.000582483 66.4602 13.4865 79.5231 31.4384 79.9263Z"
    fill="#352D8E"
  />
  <path
    d="M63.2497 33.3664C65.1625 33.3632 67.067 33.6189 68.9113 34.1266C69.8523 32.8035 70.3142 31.199 70.2206 29.5781C70.1269 27.9572 69.4834 26.4166 68.3962 25.2107C67.309 24.0048 65.8431 23.2056 64.2405 22.945C62.6379 22.6845 60.9944 22.9782 59.5812 23.7776L62.5199 28.5952L57.0296 26.2221C56.2851 27.4204 55.9117 28.8121 55.9565 30.2222C56.0013 31.6322 56.4622 32.9975 57.2812 34.1462C59.2271 33.6218 61.2343 33.3595 63.2497 33.3664Z"
    fill="#163B36"
  />
</svg>
